<svg width="800" height="800" viewBox="0 0 800 800" fill="none" xmlns="http://www.w3.org/2000/svg">
<g clip-path="url(#clip0_305_7)">
<path fill-rule="evenodd" clip-rule="evenodd" d="M150 50L400 550L650 50H800L670.633 292.562C674.658 294.413 678.633 296.386 682.552 298.481C714.782 315.708 742.266 340.619 762.57 371.005C782.873 401.392 795.37 436.316 798.952 472.686C802.534 509.055 797.091 545.747 783.106 579.51C769.12 613.274 747.024 643.068 718.774 666.252C690.524 689.436 656.992 705.295 621.149 712.425C585.306 719.555 548.257 717.735 513.285 707.126C507.648 705.416 502.092 703.486 496.631 701.343C484.531 696.596 472.892 690.805 461.842 684.046L400 800L338.17 684.069C327.131 690.818 315.504 696.601 303.418 701.343C297.956 703.486 292.401 705.416 286.763 707.126C251.792 717.735 214.743 719.555 178.9 712.425C143.057 705.295 109.525 689.436 81.2748 666.252C53.0248 643.068 30.9285 613.274 16.9431 579.51C2.95779 545.747 -2.48489 509.055 1.0972 472.686C4.67926 436.316 17.1756 401.392 37.4791 371.005C57.7827 340.619 85.2669 315.708 117.497 298.481C121.404 296.393 125.365 294.426 129.376 292.58L0 50H150ZM296.13 605.245L171.416 371.405C167.359 373.08 163.378 374.96 159.487 377.039C140.176 387.361 123.709 402.287 111.543 420.493C99.3782 438.7 91.8908 459.625 89.7446 481.417C87.5983 503.208 90.8594 525.193 99.2389 545.423C107.618 565.652 120.858 583.504 137.784 597.395C154.711 611.286 174.802 620.788 196.278 625.06C217.754 629.332 239.952 628.242 260.906 621.885C273.445 618.082 285.307 612.462 296.13 605.245ZM503.882 605.221C514.715 612.45 526.59 618.077 539.143 621.885C560.097 628.242 582.295 629.332 603.771 625.06C625.247 620.788 645.338 611.286 662.265 597.395C679.191 583.504 692.43 565.652 700.81 545.423C709.189 525.193 712.451 503.208 710.304 481.417C708.158 459.625 700.671 438.7 688.505 420.493C676.34 402.287 659.873 387.361 640.561 377.039C636.659 374.953 632.664 373.068 628.593 371.388L503.882 605.221Z" fill="#3DDA98"/>
<path fill-rule="evenodd" clip-rule="evenodd" d="M250.043 50C266.748 37.4709 284.995 27.056 304.373 19.0293C305.822 18.4289 307.277 17.8425 308.736 17.2699C337.811 5.8629 368.779 -4.09927e-06 400.039 0C431.3 4.09929e-06 462.268 5.86291 491.343 17.27C492.802 17.8425 494.257 18.429 495.706 19.0294C515.084 27.056 533.331 37.4709 550.036 50H600L400 450L200 50H250.043ZM467.077 115.845C463.918 114.267 460.7 112.798 457.428 111.442C439.233 103.906 419.733 100.027 400.039 100.027C380.346 100.027 360.846 103.906 342.651 111.442C339.357 112.807 336.118 114.286 332.939 115.877L400 249.999L467.077 115.845Z" fill="#F3A1F0"/>
</g>
</svg>
